<svg width="20" height="14" viewBox="0 0 20 14" fill="none" xmlns="http://www.w3.org/2000/svg">
<path fill-rule="evenodd" clip-rule="evenodd" d="M17 0H3C1.343 0 0 1.343 0 3V11C0 12.656 1.343 14 3 14H17C18.657 14 20 12.656 20 11V3C20 1.343 18.657 0 17 0ZM9.729 8.282C9.584 9.205 9.213 9.968 8.624 10.55C8.027 11.141 7.255 11.44 6.33 11.44C5.192 11.44 4.281 11.038 3.624 10.245C2.977 9.459 2.649 8.379 2.649 7.03C2.649 5.572 3.021 4.427 3.754 3.627C4.404 2.919 5.241 2.56 6.241 2.56C7.571 2.56 8.562 3.042 9.188 3.995C9.528 4.525 9.714 5.067 9.741 5.606L9.754 5.842H7.77L7.726 5.673C7.634 5.318 7.519 5.051 7.383 4.88C7.144 4.582 6.792 4.437 6.307 4.437C5.824 4.437 5.451 4.646 5.167 5.078C4.869 5.533 4.718 6.198 4.718 7.055C4.718 7.906 4.874 8.545 5.184 8.953C5.482 9.348 5.85 9.541 6.306 9.541C6.775 9.541 7.12 9.381 7.364 9.05C7.502 8.867 7.619 8.578 7.715 8.194L7.757 8.024H9.77L9.729 8.282V8.282ZM17.311 8.282C17.166 9.205 16.795 9.968 16.207 10.55C15.609 11.141 14.838 11.44 13.913 11.44C12.774 11.44 11.864 11.038 11.206 10.245C10.56 9.46 10.231 8.38 10.231 7.031C10.231 5.573 10.603 4.428 11.337 3.628C11.986 2.92 12.822 2.561 13.823 2.561C15.153 2.561 16.143 3.043 16.769 3.996C17.109 4.526 17.295 5.068 17.323 5.607L17.335 5.843H15.352L15.309 5.674C15.217 5.319 15.101 5.051 14.965 4.881C14.727 4.583 14.374 4.438 13.889 4.438C13.406 4.438 13.033 4.647 12.75 5.079C12.451 5.534 12.3 6.199 12.3 7.056C12.3 7.907 12.457 8.546 12.767 8.954C13.066 9.349 13.433 9.542 13.888 9.542C14.357 9.542 14.702 9.382 14.946 9.051C15.084 8.868 15.202 8.579 15.298 8.195L15.34 8.025H17.352L17.311 8.282V8.282Z" fill="white"/>
</svg>
