<svg width="60" height="60" viewBox="0 0 60 60" fill="none" xmlns="http://www.w3.org/2000/svg">
<circle cx="30" cy="30" r="29.5" fill="#8F94FF" stroke="white"/>
<path d="M20.36 41V18.6H30.408C32.9893 18.6 34.9733 19.1227 36.36 20.168C37.7467 21.192 38.44 22.6 38.44 24.392C38.44 25.608 38.1627 26.632 37.608 27.464C37.0747 28.296 36.3493 28.936 35.432 29.384C34.5147 29.832 33.5227 30.056 32.456 30.056L33.032 29.096C34.312 29.096 35.4427 29.32 36.424 29.768C37.4053 30.216 38.184 30.8773 38.76 31.752C39.336 32.6053 39.624 33.672 39.624 34.952C39.624 36.872 38.8987 38.3653 37.448 39.432C36.0187 40.4773 33.8853 41 31.048 41H20.36ZM23.56 38.408H30.92C32.6907 38.408 34.0453 38.1093 34.984 37.512C35.9227 36.9147 36.392 35.976 36.392 34.696C36.392 33.3947 35.9227 32.4453 34.984 31.848C34.0453 31.2507 32.6907 30.952 30.92 30.952H23.272V28.36H30.12C31.7413 28.36 33 28.0613 33.896 27.464C34.792 26.8667 35.24 25.9707 35.24 24.776C35.24 23.5813 34.792 22.6853 33.896 22.088C33 21.4907 31.7413 21.192 30.12 21.192H23.56V38.408Z" fill="white"/>
</svg>
